# xmcd CD database file
#
# Track frame offsets:
#	150
#	14372
#	32277
#	52425
#	69520
#	84207
#	99932
#	118685
#	140785
#	159067
#	179582
#
# Disc length: 2664 seconds
#
# Revision: 0
# Processed by: cddbd v1.5.1PL0 Copyright (c) Steve Scherf et al.
# Submitted via: CDex 1.51
#
DISCID=8a0a660b
DTITLE=Silver Mountain - Anthology II
DYEAR=1900
DGENRE=Hard Rock
TTITLE0=She Needs
TTITLE1=Man Of No Persent Existence
TTITLE2=Axeman And The Virgin
TTITLE3=Maniac
TTITLE4=Help Me (Studio Version)
TTITLE5=Help Me (Live Version)
TTITLE6=Desperate Heart
TTITLE7=Children Of The Future
TTITLE8=Illusion
TTITLE9=Children Of The Future
TTITLE10=Remorseful Rascal
EXTD=
EXTT0=
EXTT1=
EXTT2=
EXTT3=
EXTT4=
EXTT5=
EXTT6=
EXTT7=
EXTT8=
EXTT9=
EXTT10=
PLAYORDER=
